<?xml version="1.0" encoding="UTF-8"?>
<svg width="42" height="48" viewBox="0 0 42 48" fill="none" xmlns="http://www.w3.org/2000/svg">
  <path d="M21 0L41.5692 12V36L21 48L0.430786 36V12L21 0Z" fill="#10B981"/>
  <path d="M21 4L37.5692 13V34L21 43L4.43079 34V13L21 4Z" fill="white"/>
  <path d="M21 8L33.5692 14V32L21 38L8.43079 32V14L21 8Z" fill="#10B981"/>
  <path d="M21 12L29.5692 15V30L21 33L12.4308 30V15L21 12Z" fill="white"/>
  <path d="M21 16L25.5692 16V28L21 28L16.4308 28V16L21 16Z" fill="#10B981"/>
  <path d="M21 20L21.5692 20V26L21 26L20.4308 26V20L21 20Z" fill="white"/>
</svg> 